<?xml version="1.0" standalone="no"?>
<!DOCTYPE svg PUBLIC "-//W3C//DTD SVG 20010904//EN"
 "http://www.w3.org/TR/2001/REC-SVG-20010904/DTD/svg10.dtd">
<svg version="1.0" xmlns="http://www.w3.org/2000/svg"
 width="260.000000pt" height="260.000000pt" viewBox="0 0 260.000000 260.000000"
 preserveAspectRatio="xMidYMid meet">
<metadata>
Created by potrace 1.14, written by Peter Selinger 2001-2017
</metadata>
<g transform="translate(0.000000,260.000000) scale(0.100000,-0.100000)"
fill="#000000" stroke="none">
<path d="M105 2581 c-48 -22 -69 -44 -90 -94 -13 -32 -15 -174 -15 -1187 0
-1013 2 -1155 15 -1187 21 -50 42 -72 90 -94 38 -18 95 -19 1195 -19 1100 0
1157 1 1195 19 48 22 69 44 90 94 13 32 15 174 15 1187 0 1013 -2 1155 -15
1187 -21 50 -42 72 -90 94 -38 18 -95 19 -1195 19 -1100 0 -1157 -1 -1195 -19z
m1410 -216 c470 -77 811 -360 921 -765 13 -47 18 -101 17 -195 0 -112 -4 -143
-27 -220 -118 -390 -475 -670 -940 -734 -94 -13 -258 -14 -344 -2 -59 9 -66 8
-138 -25 -42 -20 -169 -66 -282 -103 -413 -136 -436 -134 -294 33 82 95 202
253 202 265 0 4 -26 25 -57 48 -189 133 -327 327 -384 538 -34 123 -31 309 5
430 114 379 453 654 901 729 108 19 310 19 420 1z"/>
<path d="M955 1977 l-130 -92 78 -3 c42 -2 77 -6 77 -10 0 -4 -34 -137 -74
-297 -52 -206 -75 -283 -80 -265 -3 14 -20 84 -36 155 -17 72 -33 138 -36 148
-4 14 -17 17 -64 17 -54 0 -60 -2 -65 -22 -3 -13 -19 -88 -36 -168 -16 -79
-31 -146 -33 -148 -2 -1 -23 74 -46 168 l-42 170 -59 0 c-33 0 -59 -3 -59 -6
0 -6 95 -345 131 -466 l20 -68 53 0 52 0 38 163 c21 89 41 165 45 169 3 4 22
-59 40 -140 48 -206 41 -192 103 -192 l53 0 28 98 c59 208 187 672 187 678 0
3 32 4 70 2 39 -2 70 -1 70 1 0 6 -142 191 -150 196 -3 2 -64 -37 -135 -88z"/>
<path d="M1415 1635 c-90 -32 -133 -144 -85 -223 27 -44 68 -66 169 -92 110
-27 131 -41 131 -84 0 -50 -29 -71 -99 -71 -66 0 -107 22 -117 60 -6 23 -11
25 -60 25 -49 0 -54 -2 -54 -22 0 -44 43 -101 95 -127 42 -22 62 -26 135 -26
142 1 210 53 210 163 0 98 -39 134 -190 172 -97 25 -116 33 -130 60 -30 56 51
104 133 78 31 -10 46 -21 57 -45 14 -31 18 -33 69 -33 52 0 53 1 47 25 -19 73
-67 126 -133 144 -52 15 -130 13 -178 -4z"/>
<path d="M1110 1360 l0 -270 55 0 55 0 0 270 0 270 -55 0 -55 0 0 -270z"/>
<path d="M1820 1360 l0 -270 205 0 205 0 0 50 0 50 -150 0 -150 0 0 70 0 70
135 0 135 0 0 45 0 45 -135 0 -135 0 0 60 0 60 145 0 145 0 0 45 0 45 -200 0
-200 0 0 -270z"/>
</g>
</svg>
